<?xml version="1.0" encoding="UTF-8"?>
<svg xmlns="http://www.w3.org/2000/svg" width="374" height="135" viewBox="0 0 374 135" fill="none">
  <path d="M134.729 0H29.8261V46.089L30.8067 44.8575L31.6961 43.7857L31.8102 43.6261V1.98404H132.745V48.4379H133.293L134.159 48.4607H134.729V0Z" fill="black"></path>
  <path d="M134.729 84.2874L133.794 85.1084L132.928 85.9066L132.745 86.0662V133.409H31.8102V99.5896L29.9401 102.053L29.8261 102.212V135.416H134.729V84.2874Z" fill="black"></path>
  <path d="M185.265 62.7598C181.48 62.7598 179.017 59.932 179.017 55.7815C179.017 51.6309 181.503 48.7575 185.288 48.7575C186.885 48.7575 188.093 49.168 189.119 49.8749L188.846 51.745C187.865 50.9924 186.725 50.4223 185.265 50.4223C182.529 50.4223 180.91 52.4975 180.91 55.7358C180.91 58.9742 182.552 61.0494 185.265 61.0494C186.725 61.0494 187.979 60.4793 189.051 59.7039L189.325 61.4371C188.298 62.1897 186.793 62.737 185.243 62.737" fill="black"></path>
  <path d="M198.834 50.4445C196.166 50.4445 194.501 52.5198 194.501 55.7581C194.501 58.9964 196.166 61.0717 198.834 61.0717C201.503 61.0717 203.167 58.9964 203.167 55.7581C203.167 52.5198 201.503 50.4445 198.834 50.4445ZM198.834 62.7821C195.026 62.7821 192.631 59.9543 192.631 55.8037C192.631 51.6532 195.072 48.7798 198.88 48.7798C202.688 48.7798 205.083 51.6076 205.083 55.7581C205.083 59.9086 202.666 62.7821 198.834 62.7821Z" fill="black"></path>
  <path d="M218.926 62.5086L211.514 51.9955V62.5086H209.804V49.008H211.446L218.629 59.1335V49.008H220.317V62.5086H218.926Z" fill="black"></path>
  <path d="M229.621 50.6272H227.865V55.2566H229.439C231.218 55.2566 232.358 54.4585 232.358 52.9305C232.358 51.4026 231.446 50.6272 229.644 50.6272M235.254 62.235L233.384 62.6455L229.256 56.8074H227.865V62.5086H226.018V49.008H229.69C232.449 49.008 234.159 50.3764 234.159 52.8393C234.159 54.8689 232.974 56.0776 231.195 56.5793L235.208 62.235H235.254Z" fill="black"></path>
  <path d="M243.532 51.1288L241.389 56.8301H245.722L243.555 51.1288H243.532ZM247.911 62.6454L246.314 58.4493H240.727L239.199 62.5086H237.329L242.62 48.9396H244.467L249.667 62.2349L247.888 62.6226L247.911 62.6454Z" fill="black"></path>
  <path d="M257.535 50.6728H255.414V60.8439H257.489C260.75 60.8439 262.689 59.2019 262.689 55.7583C262.689 52.3148 260.636 50.6728 257.535 50.6728ZM257.398 62.5086H253.566V49.008H257.489C262.187 49.008 264.581 51.7903 264.581 55.7355C264.581 59.6808 262.05 62.5086 257.398 62.5086Z" fill="black"></path>
  <path d="M286.018 62.5086L278.606 51.9955V62.5086H276.896V49.008H278.538L285.699 59.1335V49.008H287.409V62.5086H286.018Z" fill="black"></path>
  <path d="M292.7 60.1823H290.762V62.5084H292.7V60.1823Z" fill="black"></path>
  <path d="M311.491 62.5086V56.2829H304.65V62.5086H302.825V49.008H304.65V54.5953H311.491V49.008H313.339V62.5086H311.491Z" fill="black"></path>
  <path d="M320.591 49.008H318.743V62.5086H320.591V49.008Z" fill="black"></path>
  <path d="M326.383 62.5086V49.008H328.23V60.8211H333.111L333.361 62.5086H326.383Z" fill="black"></path>
  <path d="M340.271 50.6956V62.5086H338.424V50.6956H334.114V49.008H344.422L344.695 50.6956H340.271Z" fill="black"></path>
  <path d="M352.905 50.4445C350.237 50.4445 348.572 52.5198 348.572 55.7581C348.572 58.9964 350.237 61.0717 352.905 61.0717C355.573 61.0717 357.238 58.9964 357.238 55.7581C357.238 52.5198 355.573 50.4445 352.905 50.4445ZM352.905 62.7821C349.097 62.7821 346.702 59.9543 346.702 55.8037C346.702 51.6532 349.143 48.7798 352.951 48.7798C356.759 48.7798 359.154 51.6076 359.154 55.7581C359.154 59.9086 356.737 62.7821 352.905 62.7821Z" fill="black"></path>
  <path d="M372.609 62.5086L365.197 51.9955V62.5086H363.487V49.008H365.129L372.29 59.1335V49.008H374V62.5086H372.609Z" fill="black"></path>
  <path d="M181.411 73.6376V77.7654H185.471L185.744 79.4529H181.411V85.4507H179.564V71.9501H186.588V73.6376H181.411Z" fill="black"></path>
  <path d="M196.007 73.3866C193.338 73.3866 191.674 75.4618 191.674 78.7001C191.674 81.9385 193.338 84.0137 196.007 84.0137C198.675 84.0137 200.339 81.9385 200.339 78.7001C200.339 75.4618 198.675 73.3866 196.007 73.3866ZM196.007 85.7241C192.198 85.7241 189.804 82.8963 189.804 78.7458C189.804 74.5952 192.244 71.7218 196.052 71.7218C199.861 71.7218 202.255 74.5496 202.255 78.7001C202.255 82.8507 199.838 85.7241 196.007 85.7241Z" fill="black"></path>
  <path d="M211.674 85.7243C208.413 85.7243 206.451 83.6491 206.451 80.3652V71.9729H208.298V80.1371C208.298 82.486 209.348 84.0596 211.674 84.0596C214 84.0596 215.117 82.6457 215.117 80.2055V71.9957H216.964V80.2967C216.964 83.6947 214.958 85.7471 211.674 85.7471" fill="black"></path>
  <path d="M231.628 85.4507L224.216 74.9603V85.4507H222.506V71.9501H224.148L231.309 82.0755V71.9501H233.019V85.4507H231.628Z" fill="black"></path>
  <path d="M242.688 73.6148H240.568V83.7859H242.643C245.904 83.7859 247.842 82.1439 247.842 78.7004C247.842 75.2568 245.79 73.6148 242.688 73.6148ZM242.552 85.4507H238.72V71.9501H242.643C247.341 71.9501 249.735 74.7323 249.735 78.6776C249.735 82.6228 247.204 85.4507 242.552 85.4507Z" fill="black"></path>
  <path d="M257.74 74.0937L255.596 79.795H259.929L257.763 74.0937H257.74ZM262.118 85.6102L260.522 81.4141H254.935L253.407 85.4734H251.537L256.828 71.9044H258.675L263.874 85.1998L262.096 85.5874L262.118 85.6102Z" fill="black"></path>
  <path d="M271.172 73.6376V85.4507H269.325V73.6376H265.015V71.9501H275.323L275.596 73.6376H271.172Z" fill="black"></path>
  <path d="M281.366 71.9501H279.519V85.4507H281.366V71.9501Z" fill="black"></path>
  <path d="M292.449 73.3866C289.781 73.3866 288.116 75.4618 288.116 78.7001C288.116 81.9385 289.781 84.0137 292.449 84.0137C295.117 84.0137 296.782 81.9385 296.782 78.7001C296.782 75.4618 295.117 73.3866 292.449 73.3866ZM292.449 85.7241C288.641 85.7241 286.246 82.8963 286.246 78.7458C286.246 74.5952 288.686 71.7218 292.495 71.7218C296.303 71.7218 298.698 74.5496 298.698 78.7001C298.698 82.8507 296.28 85.7241 292.449 85.7241Z" fill="black"></path>
  <path d="M312.153 85.4507L304.741 74.9603V85.4507H303.031V71.9501H304.673L311.833 82.0755V71.9501H313.544V85.4507H312.153Z" fill="black"></path>
  <path d="M41.4567 43.0334C41.069 43.0334 40.7041 43.2158 40.4533 43.5123L0.225133 95.3254C-0.139748 95.7815 -0.0484885 96.4656 0.407613 96.8305C0.590053 96.9902 0.818053 97.0586 1.06891 97.0586C1.38818 97.0586 1.70744 96.8989 1.91268 96.6481L42.4601 45.063C42.6653 44.7894 42.7566 44.4701 42.711 44.128C42.6653 43.786 42.5057 43.4895 42.2321 43.2842C42.004 43.1018 41.7304 43.0106 41.4567 43.0106" fill="black"></path>
  <path d="M107.933 79.4526C107.797 79.4526 107.66 79.4526 107.523 79.4526C106.748 79.407 106.2 79.1789 106.063 78.9737C105.972 78.8596 105.927 78.7456 105.927 78.5176C105.927 78.2895 105.972 77.993 106.063 77.6966C106.246 77.1493 106.542 76.5335 106.998 75.7582C107.135 75.5529 107.272 75.3249 107.409 75.0968C107.5 75.2792 107.637 75.4617 107.751 75.6213C108.23 76.1915 108.846 76.5107 109.279 76.6476C109.826 76.83 110.419 76.9212 111.058 76.9212C111.468 76.9212 111.856 76.8984 112.198 76.8528C112.814 76.7616 113.452 76.6476 114.159 76.4651C113.338 77.1949 112.494 77.8106 111.605 78.3351C110.282 79.0877 109.051 79.4754 107.933 79.4754M111.787 74.7775C111.081 74.7775 110.51 74.6863 110.123 74.5039C109.644 74.253 109.553 74.0478 109.53 73.6601C109.53 73.2268 109.689 72.5883 110.009 71.9953C110.305 71.448 110.716 70.8551 111.263 70.2849C112.289 69.1903 113.543 68.3693 114.843 67.9132C115.185 67.7992 115.527 67.708 115.87 67.6624C116.052 67.6396 116.212 67.6168 116.371 67.5939C116.417 67.5939 116.485 67.5939 116.554 67.5939H116.896C117.603 67.5939 118.127 67.7536 118.378 68.0272C118.652 68.3237 118.766 68.9166 118.652 69.6008C118.561 70.2165 118.333 70.9235 117.968 71.676C117.603 72.4058 117.147 73.1356 116.599 73.8653C114.957 74.4127 113.429 74.7319 112.084 74.7775C111.993 74.7775 111.924 74.7775 111.833 74.7775M36.9869 79.5666C36.9869 79.5666 36.7588 79.5666 36.6448 79.521C35.7326 79.3842 34.98 79.1333 34.3643 78.7684C33.7029 78.3807 33.2012 77.8334 32.882 77.1949C32.5855 76.5791 32.4258 75.8266 32.4258 75.0056C32.4715 73.4776 33.0416 71.8357 34.0222 70.3762C35.0256 68.8938 36.3711 67.7992 37.8306 67.2747C38.2183 67.1378 38.606 67.0238 38.9937 66.9554C39.199 66.9098 39.3586 66.9098 39.5867 66.887H39.6322C39.7919 66.887 39.9059 66.887 40.0427 66.887C40.0883 66.887 40.134 66.887 40.2024 66.887C41.0234 66.9098 41.5479 67.1378 41.7759 67.5711C42.0268 68.0272 42.0496 68.8254 41.8672 69.7604C41.7075 70.627 41.3882 71.4936 41.0462 72.3146C40.2708 74.1618 39.2446 75.9178 38.4236 77.2405C37.9675 77.9931 37.4658 78.7684 36.9413 79.5666M76.3484 67.936C76.6449 67.3659 76.9413 66.8186 77.2378 66.3169C77.9447 65.017 78.7429 63.6487 79.5867 62.3032C80.841 60.3191 82.8022 57.4229 85.2195 55.074C85.8353 54.5038 86.3826 54.0477 86.8843 53.6829C87.1352 53.5232 87.4317 53.318 87.7509 53.1812C88.0246 53.0443 88.3438 52.9531 88.5263 52.9303H88.6175C88.6175 52.9303 88.6175 52.9987 88.6175 53.0215C88.4807 53.5004 88.207 54.1162 87.7281 54.8915C86.2458 57.3317 84.3758 59.5666 82.0268 62.212C80.3849 64.0592 78.5149 65.952 76.3484 67.936ZM65.9949 43.0785C65.6072 43.0785 65.2423 43.261 65.0143 43.5574L43.1442 71.6532C43.3267 71.1287 43.4863 70.627 43.6231 70.1025C43.76 69.5096 43.8512 68.9851 43.8512 68.5061C43.8512 67.822 43.7599 67.2291 43.5319 66.6817C43.2582 66.066 42.7338 65.5187 42.0952 65.1994C41.5935 64.9486 41.0005 64.7889 40.3392 64.7205C40.1796 64.7205 39.9515 64.6977 39.7007 64.6977H39.5182C39.2218 64.6977 38.9025 64.7205 38.6745 64.7661C38.1272 64.8345 37.6026 64.9486 37.0781 65.1082C35.1397 65.7467 33.3381 67.0922 32.0154 68.9166C30.6699 70.7866 29.9629 72.8847 29.9401 74.9372C29.9401 76.1458 30.2138 77.2861 30.7383 78.2667C31.2628 79.2929 32.1522 80.1595 33.2012 80.7297C33.8626 81.0945 34.6151 81.3682 35.4361 81.5278L24.695 95.3249C24.3301 95.781 24.3985 96.4195 24.8318 96.8072C25.0142 96.9669 25.2651 97.0581 25.5159 97.0581C25.8352 97.0581 26.1317 96.9213 26.3369 96.6932L26.3597 96.6476C28.1841 94.4355 30.0997 91.9954 32.2206 89.2132L38.1043 81.7559C38.492 81.7559 38.9025 81.7331 39.3358 81.6875C41.297 81.5506 43.2126 81.2086 45.1967 80.6156C48.8911 79.4982 52.3803 77.6966 55.5958 75.2564C55.9835 74.96 56.3712 74.6635 56.736 74.3671C56.4396 74.9828 56.1887 75.5985 55.9835 76.2599C55.7098 77.1721 55.4818 77.9931 55.5502 79.0421C55.5958 79.4526 55.7327 80.2508 56.3484 80.8209C56.8045 81.2314 57.3746 81.4822 58.0815 81.5278C58.2184 81.5278 58.3552 81.5278 58.4692 81.5278C58.5833 81.5278 58.7201 81.5278 58.8113 81.5278C59.0622 81.5278 59.2674 81.4822 59.5183 81.4366C59.9287 81.3682 60.3393 81.277 60.8182 81.1173C62.5285 80.57 64.0337 79.7262 65.2879 78.9737C66.5422 78.2211 67.8421 77.3317 69.2788 76.2599C69.8033 75.8722 70.3507 75.4389 70.9436 74.96C70.8296 75.3933 70.7156 75.895 70.6471 76.4195C70.5331 77.2177 70.4191 78.1299 70.6471 79.1789C70.784 79.8403 71.0576 80.3648 71.4453 80.7525C71.8786 81.2086 72.5399 81.4822 73.2013 81.5278H73.9082C74.0451 81.5278 74.2503 81.4822 74.4328 81.4594H74.5924C75.0713 81.3682 75.4818 81.277 75.8923 81.163C77.6939 80.6612 79.2675 79.7947 80.4305 79.1105C83.304 77.3773 85.8125 75.2792 88.093 73.2952C89.8718 71.7217 91.719 69.9657 93.6803 67.9816C93.1101 68.9166 92.5856 69.7832 92.1067 70.627C91.3085 72.0637 90.6928 73.2724 90.1911 74.4355C89.849 75.2336 89.6209 75.8722 89.4385 76.5107C89.2332 77.2633 89.028 78.0159 89.0736 78.9281C89.0736 79.3158 89.1648 79.9087 89.5297 80.4788C89.849 80.9577 90.4191 81.3682 91.012 81.505C91.2857 81.5734 91.5366 81.5963 91.7418 81.6191H92.3575C92.6312 81.6191 92.9961 81.5734 93.475 81.505C94.7749 81.3226 96.0975 80.9121 97.6939 80.2051C100.134 79.1105 102.278 77.6282 104.079 76.2599C103.965 76.5335 103.874 76.8072 103.806 77.0809C103.646 77.651 103.6 78.1755 103.623 78.6772C103.669 79.3614 103.943 80.0455 104.376 80.4788C104.878 81.0261 105.516 81.2542 105.927 81.391C106.383 81.505 106.839 81.5734 107.409 81.5962C107.477 81.5962 107.569 81.5962 107.637 81.5962C108.07 81.5962 108.435 81.5734 108.823 81.505C109.279 81.4366 109.735 81.3226 110.191 81.163C111.012 80.8893 111.787 80.5016 112.608 79.9999C114 79.1333 115.277 78.0159 116.531 76.6476C116.873 76.2599 117.238 75.8494 117.626 75.3249C120.385 74.2986 123.144 72.8391 126.063 70.8779C126.565 70.5586 127.067 70.2165 127.569 69.8745C128.412 69.3043 129.279 68.7114 130.146 68.2097C130.533 67.9816 130.852 67.822 131.126 67.6852C131.445 67.5483 131.719 67.4799 131.833 67.4799H131.879C131.879 67.4799 131.902 67.5255 131.924 67.5711L131.97 67.6396V67.822C131.97 67.822 131.97 67.9588 131.947 68.0728C131.856 68.529 131.559 69.0991 131.058 69.8745C130.67 70.4446 130.214 71.0375 129.781 71.5848L129.644 71.7445C129.051 72.5198 128.389 73.2952 127.774 74.0478C127.363 74.5267 126.976 75.0284 126.565 75.5073C126.109 76.0774 125.562 76.7616 125.014 77.4913C124.809 77.7878 124.535 78.1527 124.262 78.6088C124.125 78.8368 124.011 79.0421 123.92 79.2929C123.874 79.407 123.806 79.5666 123.76 79.7719C123.715 79.9543 123.669 80.2279 123.76 80.6156C123.874 81.0261 124.239 81.391 124.558 81.5278C124.763 81.6191 124.992 81.6647 125.22 81.6647H125.334C125.334 81.6647 125.379 81.6647 125.493 81.6647H125.585C125.585 81.6647 125.79 81.5962 125.881 81.5734C125.949 81.5506 125.972 81.5278 126.018 81.5278C126.223 81.4138 126.337 81.3454 126.451 81.2542C126.862 80.9349 127.181 80.6384 127.455 80.3648L127.5 80.3192C128.047 79.7718 128.549 79.2245 129.028 78.7L129.21 78.5176C131.331 76.1915 133.612 73.7741 136.166 71.7445C137.58 70.627 138.857 69.7604 140.111 69.0991C141.685 68.2553 143.076 67.7992 144.353 67.708C144.513 67.708 144.695 67.708 144.855 67.708C145.106 67.708 145.242 67.708 145.311 67.7308C145.425 67.7536 145.471 67.7764 145.471 67.7764C145.493 67.8448 145.516 68.05 145.471 68.3237C145.425 68.643 145.288 69.0307 145.197 69.2815C144.764 70.4446 144.079 71.6304 143.418 72.7707L143.03 73.4548C142.802 73.8425 142.574 74.253 142.323 74.6407C141.73 75.6441 141.115 76.6704 140.567 77.7878C140.385 78.1527 140.203 78.586 140.02 79.0877C139.929 79.3614 139.86 79.635 139.838 80.0683V80.1367C139.838 80.3648 139.861 80.6384 140.089 81.0261C140.317 81.4138 140.818 81.7103 141.16 81.7559C141.343 81.7787 141.411 81.8015 141.616 81.8015H141.776C141.776 81.8015 142.004 81.7787 142.141 81.7559C142.369 81.7331 142.529 81.6875 142.711 81.6647H142.848C143.281 81.5506 143.692 81.4594 144.102 81.3454C145.699 80.9349 147.295 80.4788 148.846 80.0227C150.396 79.5666 151.993 79.1105 153.589 78.7C155.414 78.2211 156.919 77.879 158.287 77.651C159.199 77.4913 159.952 77.4001 160.613 77.3545C160.796 77.3545 160.978 77.3545 161.16 77.3545C161.776 77.3545 162.278 77.4229 162.643 77.5598H162.711C162.711 77.5598 162.894 77.6282 163.008 77.6282C163.35 77.6282 163.669 77.4229 163.806 77.1036C163.988 76.6703 163.783 76.1686 163.35 75.9862C162.392 75.5757 161.525 75.5529 160.567 75.5529C159.61 75.5529 158.697 75.6669 158.013 75.7582C156.28 75.9862 154.57 76.3511 153.087 76.6704C151.445 77.0352 149.804 77.4457 148.207 77.8562C146.679 78.2439 145.083 78.6544 143.555 78.9965C143.281 79.0649 142.985 79.1105 142.711 79.1561C142.757 79.0649 142.78 78.9965 142.825 78.9281C143.281 78.0387 143.783 77.1493 144.33 76.2142C144.604 75.7125 144.9 75.2108 145.197 74.7091C146.109 73.09 146.816 71.676 147.386 70.0569C147.5 69.6692 147.637 69.1903 147.705 68.643C147.751 68.1869 147.819 67.5255 147.432 66.773C147.249 66.4309 146.93 66.0888 146.588 65.9064C146.223 65.7011 145.904 65.6327 145.63 65.5871C145.425 65.5871 145.242 65.5643 145.037 65.5643C144.741 65.5643 144.49 65.5871 144.239 65.6099H144.125C142.529 65.8151 140.955 66.4081 139.154 67.4571C137.854 68.2325 136.554 69.1675 135.049 70.399C133.612 71.5848 132.244 72.8619 130.921 74.139C131.149 73.8653 131.354 73.5917 131.582 73.2952C132.13 72.5654 132.608 71.8813 133.019 71.1515C133.429 70.4218 133.886 69.578 134.068 68.4833C134.091 68.2325 134.136 67.9132 134.068 67.5483C134.068 67.4571 134.022 67.3431 134 67.2519L133.954 67.0922L133.908 67.001V66.9554L133.84 66.8642L133.726 66.6589C133.589 66.4081 133.361 66.066 132.973 65.8151C132.654 65.6099 132.244 65.4959 131.833 65.4959C131.126 65.4959 130.647 65.7239 130.214 65.9292C129.758 66.1572 129.347 66.3853 129.028 66.5905C128.139 67.1606 127.295 67.7764 126.474 68.3693C125.972 68.7342 125.471 69.0991 124.969 69.4411C122.78 70.9463 121.001 72.0181 119.245 72.8391C119.313 72.7479 119.359 72.6339 119.404 72.5426C119.724 71.9041 120.134 71.0375 120.339 70.0113C120.453 69.464 120.476 68.9851 120.431 68.5061C120.385 67.9132 120.157 67.3203 119.815 66.887C119.473 66.4309 118.948 66.066 118.378 65.8608C117.922 65.7011 117.443 65.6099 116.873 65.5643H116.189C115.938 65.5643 115.687 65.5871 115.459 65.6327C115.003 65.7011 114.547 65.7923 114.091 65.9064C112.358 66.4081 110.738 67.3887 109.416 68.7114C109.165 68.9622 108.914 69.2359 108.663 69.5552C108.002 70.2165 107.34 71.0147 106.611 71.9497C105.813 72.6795 104.9 73.4777 103.714 74.3899C101.297 76.2599 99.0395 77.6282 96.8274 78.5176C95.4135 79.0877 94.2048 79.4298 93.1101 79.5438C92.7909 79.5666 92.5172 79.6122 92.1979 79.6122H91.7646C91.7646 79.6122 91.5593 79.5894 91.4909 79.5666C91.3313 79.521 91.3085 79.4754 91.2857 79.4298C91.2629 79.3842 91.1945 79.2245 91.1945 78.9965C91.1945 78.586 91.2857 78.0159 91.5137 77.3317C91.6962 76.8072 91.9243 76.2371 92.2435 75.5301C92.7452 74.4811 93.3381 73.3408 94.1363 71.9725C95.5274 69.578 97.1466 67.1834 98.5833 65.0854C99.9972 62.9873 101.571 60.798 103.372 58.3807C103.464 58.2439 103.578 58.107 103.692 57.9702L103.897 57.6965L124.193 57.2404C128.002 57.1492 131.902 57.1036 135.436 57.1036C138.241 57.1036 140.795 57.1264 143.03 57.1948C148.116 57.3089 151.559 57.4685 151.605 57.4685C152.084 57.4685 152.472 57.1264 152.494 56.6703C152.494 56.4423 152.426 56.2142 152.289 56.0546C152.152 55.895 151.924 55.7809 151.696 55.7809C151.651 55.7809 148.207 55.5757 143.099 55.3932C139.062 55.2336 133.817 55.1424 128.344 55.1424C126.953 55.1424 125.562 55.1424 124.171 55.1424L105.995 55.2792H105.721C106.679 54.0249 107.546 52.8847 108.389 51.8128L109.416 50.4902C110.738 48.7798 112.13 47.0238 113.498 45.3134L113.543 45.2678C113.908 44.7889 113.84 44.1275 113.384 43.7399C113.179 43.5574 112.928 43.4662 112.654 43.4662C112.335 43.4662 112.015 43.603 111.81 43.8539C110.305 45.6327 108.367 47.9588 106.497 50.3305C105.288 51.8585 104.034 53.5004 102.643 55.302L96.6905 55.3476C95.9835 55.3476 95.4362 55.9406 95.4362 56.6247C95.4362 57.3089 96.0063 57.8562 96.6905 57.8562L100.773 57.765L100.727 57.8334C100.636 57.9474 100.522 58.0842 100.408 58.1983C100.271 58.3579 100.134 58.5175 99.9972 58.6772C95.2082 64.196 91.0349 68.4605 86.8387 72.1094C84.1477 74.4583 81.7076 76.2371 79.3587 77.5826C77.8079 78.4719 76.4852 79.0421 75.2766 79.3385C74.9801 79.4298 74.6152 79.4982 74.2503 79.5438C74.2047 79.5438 74.1591 79.5438 74.0907 79.5438C73.9995 79.5438 73.8854 79.5666 73.7486 79.5666H73.2925C73.0645 79.5438 72.9733 79.4754 72.9276 79.407C72.8592 79.3385 72.768 79.1561 72.7224 78.8825C72.6312 78.3807 72.654 77.7194 72.8137 76.9212C72.9277 76.2827 73.0873 75.5985 73.3609 74.7775C73.6118 74.0022 73.9083 73.1812 74.296 72.269C75.1397 71.5164 75.8923 70.8551 76.5536 70.2393C77.7167 69.1675 78.8569 68.05 79.9744 66.9098C80.2481 66.6133 80.5445 66.3397 80.841 66.0432C81.662 65.2222 82.5057 64.3556 83.3039 63.5118C85.3792 61.2769 87.5685 58.8368 89.3929 56.0318C89.8034 55.3704 90.2595 54.6179 90.556 53.6601C90.6244 53.432 90.6928 53.1583 90.6928 52.8163C90.6928 52.3374 90.5788 51.9497 90.3279 51.6076C89.963 51.1287 89.4385 50.9691 89.1648 50.9234C89.0508 50.9234 88.9824 50.9006 88.914 50.9006H88.8456C88.8456 50.9006 88.7771 50.9006 88.7315 50.9006H88.3439C87.1352 51.0603 86.337 51.5392 85.6528 51.9497C85.0143 52.3602 84.3758 52.8619 83.646 53.5232C81.0463 55.9406 79.085 58.6772 77.4887 61.0489C76.4168 62.668 75.6414 63.9451 74.9801 65.1766C74.1591 66.7045 73.475 68.1185 72.8592 69.5096C72.5172 70.3077 72.1979 71.0603 71.9242 71.8129C70.5787 72.9303 69.3244 73.9109 68.0702 74.8003C66.679 75.8038 65.4019 76.6476 64.1933 77.3545C62.5741 78.2895 61.3198 78.8825 60.134 79.2473C59.7691 79.3614 59.4271 79.4298 59.1306 79.4754C58.971 79.4982 58.7885 79.521 58.6745 79.521C58.6289 79.521 58.5604 79.521 58.5148 79.521C58.4008 79.521 58.3324 79.521 58.2412 79.521C57.9675 79.4982 57.8535 79.407 57.8307 79.3842C57.8079 79.3614 57.7395 79.2473 57.7395 79.0193C57.7395 78.586 57.8763 77.9474 58.1728 77.1949C58.4236 76.5563 58.7429 75.895 59.0621 75.2564L59.1078 75.188C60.5217 72.5198 62.2549 69.8973 63.9424 67.3659L63.988 67.3203C63.988 67.3203 64.0336 67.2063 64.0564 67.1835C64.3301 66.7274 64.2389 66.1572 63.8284 65.8151C63.646 65.6555 63.3951 65.5643 63.1443 65.5643C62.825 65.5643 62.5285 65.7011 62.3233 65.9292L62.2549 66.0204C61.5023 66.9326 60.7497 67.9132 59.9516 69.0307C59.5183 69.5324 59.1078 69.9657 58.7201 70.3534C57.3518 71.7445 55.915 72.9759 54.5011 74.0022C51.3084 76.3511 47.9789 77.9931 44.6037 78.8825C43.0302 79.3158 41.3654 79.5894 39.7691 79.6806L66.9071 45.2222C67.3404 44.6749 67.2492 43.8767 66.7018 43.4434C66.4738 43.2609 66.2229 43.1697 65.9265 43.1697M141.502 79.521H141.571C141.571 79.521 141.548 79.521 141.502 79.521Z" fill="black"></path>
  <path d="M69.4156 56.7621C68.8683 56.7621 68.3438 57.0357 68.0473 57.4918L67.4544 58.3584C66.9983 59.0198 67.1123 59.9092 67.7053 60.4565C68.0017 60.7074 68.3666 60.867 68.7543 60.867C69.2104 60.867 69.6437 60.6617 69.9402 60.3197L70.6471 59.5215C70.6471 59.5215 70.7383 59.4075 70.784 59.3619C71.0348 58.997 71.126 58.5409 71.0348 58.1076C70.9436 57.6743 70.7155 57.2866 70.3506 57.0357C70.077 56.8533 69.7577 56.7393 69.4156 56.7393" fill="black"></path>
</svg>
