<svg width="280" height="27" viewBox="0 0 280 27" fill="none" xmlns="http://www.w3.org/2000/svg">
<path fill-rule="evenodd" clip-rule="evenodd" d="M103.899 17.7945H99.2651V14.5505H107.792V25.1165C107.76 25.1273 107.725 25.1394 107.688 25.1524L107.579 25.191C107.306 25.2879 106.946 25.4154 106.587 25.4873C106.415 25.5218 106.229 25.5691 106.031 25.6197L106.031 25.6198C105.697 25.7051 105.326 25.7998 104.919 25.858C104.363 25.9507 103.714 26.0434 103.065 26.136L103.065 26.136L103.065 26.1361C102.416 26.2288 101.768 26.2288 101.212 26.2288C99.3578 26.2288 97.6895 25.9507 96.2992 25.4873C94.909 25.0239 93.7041 24.2824 92.7772 23.3555C91.8504 22.4287 91.1089 21.3165 90.6455 20.1116C90.1821 18.814 89.904 17.4237 89.904 15.9408C89.904 14.8285 89.9967 13.809 90.2747 12.7895C90.5528 11.77 90.9235 10.9358 91.3869 10.009C91.8504 9.17479 92.4065 8.43331 93.148 7.69184C93.7968 7.04304 94.6309 6.39425 95.4651 5.93083C96.2992 5.46741 97.3188 5.09667 98.3383 4.81861C99.3578 4.54056 100.47 4.44788 101.675 4.44788C102.694 4.44788 103.714 4.54056 104.641 4.63324C105.568 4.81861 106.402 5.00398 106.958 5.18935V8.43331C106.124 8.15526 105.29 7.96989 104.455 7.8772C103.621 7.78452 102.787 7.69184 101.953 7.69184C100.841 7.69184 99.7286 7.87721 98.8017 8.15526C97.7822 8.526 96.948 8.98942 96.2066 9.63821C95.4651 10.287 94.909 11.1212 94.5382 12.048C94.0748 12.9749 93.8894 14.1798 93.8894 15.3847C93.8894 17.8871 94.5382 19.7408 95.8358 20.9457C97.1334 22.1506 98.8944 22.7994 101.304 22.7994C101.768 22.7994 102.231 22.7994 102.694 22.7067C102.903 22.665 103.112 22.642 103.304 22.621C103.538 22.5952 103.747 22.5723 103.899 22.5214V17.7945ZM20.9402 13.518L20.9402 13.5179C21.1353 13.3019 21.3441 13.0707 21.5955 12.8822C21.8735 12.6041 22.2443 12.3261 22.615 12.1407C22.9857 11.9553 23.4492 11.77 23.8199 11.6773C24.2833 11.5846 24.7468 11.4919 25.2102 11.4919C25.6957 11.4919 26.1105 11.5625 26.578 11.6421L26.5781 11.6422C26.6461 11.6537 26.7152 11.6655 26.7858 11.6773C27.3419 11.8626 27.8053 12.048 28.2688 12.4187C28.7322 12.7895 29.1029 13.2529 29.381 13.9017C29.659 14.5505 29.8444 15.3847 29.8444 16.4042V25.7653H27.5273V16.7749C27.5273 15.6627 27.3419 14.8285 26.8785 14.2724C26.4151 13.7163 25.7663 13.4383 24.7468 13.4383C23.9126 13.4383 23.1711 13.6236 22.4296 14.0871C21.6882 14.5505 21.0394 15.1066 20.576 15.8481V25.7653H18.2588V4.54056H20.576V13.809H20.6686C20.7581 13.7196 20.8475 13.6205 20.94 13.5181L20.9401 13.518L20.9402 13.518ZM8.9904 25.7653H6.5806V8.34063H0V6.20888H15.4783V8.34063H8.9904V25.7653ZM42.9129 24.0043C42.3568 24.097 41.6154 24.1897 40.8739 24.1897C40.1324 24.1897 39.4836 24.097 38.9275 23.6336C38.2787 23.4482 37.7226 23.1702 37.2592 22.7994C36.7958 22.4287 36.425 21.9653 36.147 21.3165C35.8689 20.7604 35.7762 20.0189 35.7762 19.092H45.5081V18.5359V18.2579C45.5081 17.053 45.3227 16.0334 45.0447 15.1066C44.7666 14.2724 44.3032 13.531 43.8398 12.9749C43.3764 12.4187 42.7276 12.048 42.0788 11.77C41.3373 11.4919 40.5958 11.3992 39.8543 11.3992C39.0202 11.3992 38.186 11.5846 37.4445 11.8626C36.7031 12.1407 35.9616 12.6041 35.4055 13.2529C34.8494 13.9017 34.386 14.6432 34.0152 15.57C33.6445 16.4969 33.4591 17.6091 33.4591 18.9067C33.4591 20.2043 33.6445 21.3165 34.0152 22.2433C34.386 23.1702 34.8494 23.9116 35.4982 24.4677C36.147 25.0238 36.9811 25.3946 37.8153 25.6726C38.6494 25.9507 39.5763 26.0434 40.5958 26.0434C41.43 26.0434 42.1715 26.0434 42.9129 25.858C43.6544 25.7653 44.3032 25.58 44.7666 25.3019V23.4482C44.1178 23.7263 43.5617 23.9116 42.9129 24.0043ZM38.186 13.7163C38.6494 13.531 39.1129 13.4383 39.669 13.4383C40.2251 13.4383 40.6885 13.531 41.0592 13.6236C41.43 13.809 41.8007 14.0871 42.0788 14.4578C42.3568 14.7359 42.5422 15.1993 42.7276 15.6627C42.7393 15.7333 42.7511 15.8025 42.7627 15.8705C42.8423 16.338 42.9129 16.7529 42.9129 17.2383H35.7762C35.7762 16.7749 35.9616 16.2188 36.147 15.7554C36.3323 15.292 36.6104 14.9212 36.9811 14.5505C37.3519 14.1798 37.7226 13.9017 38.186 13.7163ZM59.4108 4.81861V22.5214H69.2354V25.7653H55.518V4.81861H59.4108ZM86.8454 22.6141H76.5574V16.6822H84.899V13.4383H76.5574V8.06257H86.2893V4.81861H72.7574V25.7653H86.8454V22.6141ZM131.334 19.6481C131.797 18.3506 131.983 16.8676 131.983 15.292C131.983 13.7163 131.705 12.2334 131.334 10.9358C130.963 9.63821 130.222 8.43331 129.388 7.50647C128.461 6.57962 127.441 5.83814 126.144 5.28204C124.846 4.72593 123.363 4.44788 121.787 4.44788C120.119 4.44788 118.729 4.72593 117.431 5.28204C116.134 5.83814 115.022 6.57962 114.187 7.50647C113.353 8.43331 112.704 9.63821 112.241 10.9358C111.778 12.2334 111.592 13.7163 111.592 15.292C111.592 16.8676 111.778 18.3506 112.241 19.6481C112.612 20.9457 113.353 22.1506 114.187 23.0775C115.114 24.0043 116.134 24.7458 117.431 25.3019C118.729 25.858 120.212 26.1361 121.787 26.1361C123.456 26.1361 124.846 25.858 126.144 25.3019C127.441 24.7458 128.553 24.0043 129.388 23.0775C130.222 22.1506 130.871 20.9457 131.334 19.6481ZM127.534 11.9553C127.812 12.8822 127.997 13.9944 127.997 15.292C127.997 16.5896 127.905 17.7018 127.534 18.6286C127.256 19.6481 126.792 20.3896 126.236 21.0384C125.68 21.5945 125.031 22.1506 124.29 22.4287C123.549 22.7067 122.714 22.8921 121.787 22.8921C120.861 22.8921 120.026 22.7067 119.285 22.4287C118.544 22.1506 117.895 21.6872 117.339 21.0384C116.783 20.3896 116.319 19.5555 116.041 18.6286C115.763 17.7018 115.578 16.5896 115.578 15.292C115.578 13.9944 115.763 12.8822 116.041 11.9553C116.319 10.9358 116.783 10.1943 117.339 9.54553C117.895 8.89674 118.544 8.43331 119.285 8.15526C120.026 7.87721 120.861 7.69184 121.787 7.69184C122.714 7.69184 123.549 7.87721 124.29 8.15526C125.031 8.43331 125.68 8.89674 126.236 9.54553C126.792 10.1943 127.256 11.0285 127.534 11.9553ZM144.403 25.7653H141.993V6.20888H153.671V8.34063H144.403V14.6432H152.651V16.7749H144.403V25.7653ZM168.871 21.7799C169.149 20.9457 169.335 19.9262 169.335 18.814C169.335 17.7018 169.149 16.7749 168.964 15.8481C168.686 14.9212 168.222 14.1798 167.666 13.531C167.11 12.8822 166.461 12.4187 165.627 12.048C164.793 11.6773 163.866 11.4919 162.847 11.4919C161.827 11.4919 160.9 11.6773 160.066 12.048C159.325 12.4187 158.583 12.8822 158.027 13.531C157.471 14.1798 157.008 14.9212 156.73 15.8481C156.451 16.6822 156.266 17.7018 156.266 18.814C156.266 19.9262 156.451 20.853 156.73 21.7799C157.008 22.7067 157.471 23.4482 158.027 24.097C158.583 24.7458 159.232 25.2092 160.066 25.58C160.9 25.9507 161.827 26.1361 162.847 26.1361C163.774 26.1361 164.7 25.9507 165.535 25.58C166.276 25.2092 167.018 24.7458 167.574 24.097C168.13 23.4482 168.593 22.7067 168.871 21.7799ZM166.647 16.4969C166.832 17.1457 166.925 17.9798 166.925 18.814C166.925 19.6481 166.832 20.4823 166.739 21.1311C166.554 21.7799 166.276 22.336 165.905 22.7994C165.535 23.2628 165.164 23.5409 164.608 23.8189C164.144 24.097 163.588 24.1897 162.939 24.1897C162.383 24.1897 161.827 24.097 161.271 23.8189C160.715 23.6336 160.252 23.2628 159.881 22.7994C159.417 22.336 159.139 21.7799 158.954 21.1311C158.769 20.3896 158.676 19.6481 158.676 18.814C158.676 17.8871 158.769 17.1457 158.954 16.4969C159.232 15.8481 159.51 15.292 159.881 14.8285C160.252 14.3651 160.622 14.0871 161.178 13.809C161.642 13.531 162.198 13.4383 162.847 13.4383C163.403 13.4383 163.959 13.531 164.515 13.809C164.978 13.9944 165.442 14.3651 165.813 14.8285C166.183 15.292 166.461 15.8481 166.647 16.4969ZM178.418 26.1361C177.676 26.1361 177.027 26.0434 176.471 25.858C175.915 25.6726 175.359 25.4873 174.988 25.2092C174.525 24.9312 174.154 24.5604 173.876 24.1897C173.598 23.819 173.32 23.3555 173.135 22.8921C173.104 22.7685 173.063 22.6449 173.021 22.5214C172.939 22.2742 172.857 22.0271 172.857 21.7799C172.764 21.3165 172.764 20.9457 172.764 20.3896V11.8626H175.081V20.3896C175.081 21.1311 175.174 21.7799 175.359 22.336C175.637 22.8921 176.008 23.3555 176.471 23.7263C177.027 24.097 177.676 24.1897 178.51 24.1897C179.345 24.1897 180.086 24.0043 180.549 23.6336C181.106 23.2628 181.476 22.7994 181.662 22.1506C181.847 21.6872 181.94 21.0384 181.94 20.3896V11.8626H184.257V20.3896C184.257 20.853 184.257 21.3165 184.164 21.6872L183.886 22.7994C183.701 23.2628 183.423 23.7263 183.145 24.097C182.867 24.4677 182.496 24.8385 182.032 25.1165C181.569 25.3946 181.106 25.6726 180.457 25.7653C179.901 26.0434 179.159 26.1361 178.418 26.1361ZM190.924 13.518C190.831 13.6205 190.742 13.7195 190.652 13.809L190.189 11.8626H188.428V25.7653H190.745V15.7554C191.208 15.0139 191.857 14.4578 192.598 13.9944C193.34 13.531 194.174 13.3456 194.916 13.3456C195.842 13.3456 196.491 13.6236 196.955 14.1798C197.511 14.7359 197.696 15.57 197.696 16.7749V25.7653H200.013V16.4969C200.013 15.57 199.921 14.8285 199.643 14.1798C199.364 13.531 198.994 12.9749 198.623 12.6041C198.16 12.2334 197.696 11.9553 197.14 11.77C196.584 11.5846 196.028 11.4919 195.379 11.4919C194.823 11.4919 194.359 11.5846 193.896 11.6773C193.433 11.77 192.969 11.9553 192.598 12.1407C192.228 12.3261 191.857 12.6041 191.579 12.8822C191.328 13.0708 191.119 13.302 190.924 13.518ZM203.535 18.9994C203.535 18.0725 203.628 17.1457 203.813 16.4042C203.999 15.6627 204.277 15.0139 204.555 14.4578C204.833 13.9017 205.204 13.4383 205.667 13.0675C206.13 12.6968 206.501 12.4187 206.965 12.1407C207.428 11.8626 207.891 11.77 208.355 11.6773C208.818 11.5846 209.282 11.4919 209.652 11.4919C210.487 11.4919 211.228 11.6773 211.877 11.9553C212.526 12.2334 213.082 12.6968 213.545 13.1602V4.54056H215.862V25.7653H214.101L213.638 24.1897H213.545C213.486 24.2484 213.428 24.3164 213.366 24.3878C213.233 24.5419 213.086 24.7118 212.896 24.8385C212.757 24.9312 212.618 25.047 212.479 25.1629L212.479 25.1631C212.34 25.2789 212.201 25.3946 212.062 25.4873C211.784 25.6726 211.413 25.858 210.95 25.9507C210.579 26.0434 210.023 26.1361 209.467 26.1361C208.726 26.1361 207.984 26.0434 207.243 25.7653C206.501 25.4873 205.852 25.1165 205.296 24.5604C204.74 24.0043 204.277 23.2628 203.906 22.336C203.721 21.4092 203.535 20.2969 203.535 18.9994ZM205.852 18.9994C205.852 19.8335 205.945 20.4823 206.13 21.2238C206.316 21.8726 206.594 22.4287 206.872 22.8921C207.243 23.3555 207.613 23.7263 208.169 23.9116C208.633 24.1897 209.282 24.2824 209.93 24.2824C210.394 24.2824 210.857 24.1897 211.228 24.097C211.599 24.0043 211.97 23.819 212.248 23.6336C212.526 23.4482 212.804 23.2628 213.082 22.9848C213.174 22.8921 213.267 22.7762 213.36 22.6604C213.452 22.5445 213.545 22.4287 213.638 22.336V15.0139C213.174 14.5505 212.618 14.1798 211.97 13.9017C211.321 13.6236 210.672 13.4383 209.93 13.4383C209.467 13.4383 209.004 13.531 208.54 13.7163C208.077 13.9017 207.613 14.1798 207.243 14.5505C206.872 15.0139 206.501 15.57 206.223 16.2188C206.038 16.9603 205.852 17.8871 205.852 18.9994ZM227.819 25.0239L228.56 24.2824L228.838 25.858H230.785V16.5896C230.785 16.2188 230.785 15.7554 230.692 15.3847C230.692 15.0139 230.599 14.6432 230.414 14.3651C230.043 13.531 229.394 12.8822 228.467 12.4187C227.633 11.9553 226.428 11.6773 225.038 11.6773C224.793 11.6773 224.575 11.7031 224.368 11.7275C224.183 11.7493 224.008 11.77 223.833 11.77C223.648 11.8163 223.462 11.8395 223.277 11.8626C223.092 11.8858 222.906 11.909 222.721 11.9553C222.35 12.048 221.979 12.1407 221.701 12.2334C221.423 12.4187 221.145 12.5114 220.867 12.6041V14.5505C221.516 14.2724 222.072 14.0871 222.721 13.9944C223.277 13.9017 223.926 13.809 224.667 13.809C225.594 13.809 226.336 13.9944 226.892 14.2724C227.448 14.6432 227.819 15.0139 228.097 15.4773C228.225 15.6053 228.264 15.7775 228.307 15.9633L228.307 15.9635C228.326 16.0468 228.346 16.1328 228.375 16.2188C228.467 16.4969 228.467 16.8676 228.467 17.2383V18.1652H228.375C227.911 17.9798 227.355 17.7945 226.706 17.7018C226.058 17.6091 225.409 17.5164 224.667 17.5164C223.833 17.5164 223.184 17.6091 222.536 17.7945C221.979 18.0725 221.423 18.3506 220.96 18.7213C220.497 19.092 220.218 19.5555 219.94 20.1116C219.662 20.6677 219.57 21.3165 219.57 21.9653C219.57 22.6141 219.755 23.2628 219.94 23.819C220.126 24.3751 220.497 24.8385 220.867 25.2092C221.331 25.58 221.794 25.858 222.35 26.0434C222.906 26.2287 223.555 26.3214 224.204 26.3214C224.667 26.3214 225.131 26.2288 225.594 26.1361C226.058 26.0434 226.428 25.858 226.799 25.6726C227.082 25.531 227.366 25.3353 227.607 25.1681C227.646 25.1413 227.684 25.1152 227.721 25.0902C227.754 25.0671 227.787 25.0449 227.819 25.0239ZM226.984 19.2774C227.541 19.4628 228.004 19.5555 228.467 19.6481V22.5214L228.004 22.9848C227.819 23.1702 227.541 23.3555 227.17 23.5409C226.981 23.6668 226.749 23.7499 226.475 23.8484L226.475 23.8485L226.475 23.8485C226.345 23.895 226.206 23.9449 226.058 24.0043C225.594 24.097 225.131 24.1897 224.667 24.1897C224.36 24.1897 224.117 24.1261 223.831 24.0516L223.731 24.0256L223.693 24.0156L223.648 24.0043C223.37 23.9116 223.092 23.7263 222.814 23.5409C222.536 23.2628 222.35 22.9848 222.258 22.7067C222.165 22.4287 222.072 22.0579 222.072 21.5945C222.072 20.7604 222.35 20.1116 222.906 19.7408C223.37 19.2774 224.204 19.092 225.131 19.092C225.78 19.092 226.428 19.1847 226.984 19.2774ZM242.463 25.858C242.277 25.9507 241.999 26.0434 241.536 26.0434C241.165 26.1361 240.702 26.1361 240.053 26.1361C239.311 26.1361 238.663 26.0434 238.107 25.858C237.55 25.6726 237.087 25.3946 236.809 25.1165C236.438 24.7458 236.16 24.3751 235.975 23.9116C235.789 23.4482 235.697 22.8921 235.697 22.336V13.9017H233.009V11.8626H235.697V8.06257H238.014V11.8626H242.185V13.809H238.014V21.9653C238.014 22.2433 238.014 22.6141 238.199 22.8921C238.292 23.1702 238.477 23.4482 238.663 23.6336C238.848 23.819 239.126 24.0043 239.404 24.097C239.682 24.1897 240.053 24.2824 240.516 24.2824C240.794 24.2824 241.165 24.2824 241.443 24.1897C241.613 24.1472 241.764 24.1242 241.904 24.1028C242.069 24.0775 242.22 24.0545 242.37 24.0043V25.858H242.463ZM245.707 11.8626H248.024V25.7653H245.707V11.8626ZM264.892 18.814C264.892 19.9262 264.707 20.9457 264.429 21.7799C264.151 22.7067 263.688 23.4482 263.131 24.097C262.575 24.7458 261.834 25.2092 261.092 25.58C260.258 25.9507 259.331 26.1361 258.404 26.1361C257.385 26.1361 256.458 25.9507 255.624 25.58C254.79 25.2092 254.141 24.7458 253.585 24.097C253.029 23.4482 252.565 22.7067 252.287 21.7799C252.009 20.853 251.824 19.9262 251.824 18.814C251.824 17.7018 252.009 16.6822 252.287 15.8481C252.565 14.9212 253.029 14.1798 253.585 13.531C254.141 12.8822 254.882 12.4187 255.624 12.048C256.458 11.6773 257.385 11.4919 258.404 11.4919C259.424 11.4919 260.351 11.6773 261.185 12.048C262.019 12.4187 262.668 12.8822 263.224 13.531C263.78 14.1798 264.244 14.9212 264.522 15.8481C264.8 16.7749 264.892 17.7018 264.892 18.814ZM262.575 18.814C262.575 17.9798 262.483 17.1457 262.297 16.4969C262.112 15.8481 261.834 15.292 261.463 14.8285C261.092 14.3651 260.629 13.9944 260.165 13.809C259.609 13.531 259.053 13.4383 258.497 13.4383C257.848 13.4383 257.292 13.531 256.829 13.809C256.273 14.0871 255.902 14.3651 255.531 14.8285C255.161 15.292 254.882 15.8481 254.604 16.4969C254.419 17.1457 254.326 17.8871 254.326 18.814C254.326 19.6481 254.419 20.3896 254.604 21.1311C254.79 21.7799 255.068 22.336 255.531 22.7994C255.902 23.2628 256.365 23.6336 256.922 23.8189C257.478 24.097 258.034 24.1897 258.59 24.1897C259.239 24.1897 259.795 24.097 260.258 23.8189C260.814 23.5409 261.185 23.2628 261.556 22.7994C261.927 22.336 262.205 21.7799 262.39 21.1311C262.483 20.4823 262.575 19.6481 262.575 18.814ZM271.003 13.518C270.91 13.6205 270.821 13.7195 270.732 13.809L270.268 11.8626H268.507V25.7653H270.824V15.7554C271.288 15.0139 271.936 14.4578 272.678 13.9944C273.419 13.531 274.254 13.3456 274.995 13.3456C275.922 13.3456 276.571 13.6236 277.034 14.1798C277.59 14.7359 277.776 15.57 277.776 16.7749V25.7653H280.093V16.4969C280.093 15.57 280 14.8285 279.722 14.1798C279.444 13.531 279.073 12.9749 278.702 12.6041C278.239 12.2334 277.776 11.9553 277.219 11.77C276.663 11.5846 276.107 11.4919 275.458 11.4919C274.902 11.4919 274.439 11.5846 273.975 11.6773C273.512 11.77 273.049 11.9553 272.678 12.1407C272.307 12.3261 271.936 12.6041 271.658 12.8822C271.407 13.0708 271.198 13.302 271.003 13.518Z" fill="white"/>
<path d="M246.726 9.63825C252.102 7.13577 253.307 3.15033 250.434 2.50154C248.858 2.1308 247.375 4.26255 247.375 4.26255C247.375 4.26255 246.912 2.03812 245.243 1.11127C243.668 0.0917428 239.682 1.11127 243.946 6.76503C244.965 7.96993 245.892 8.89678 246.726 9.63825Z" fill="white"/>
</svg>
